<?xml version="1.0" encoding="utf-8"?>
<svg version="1.1" xmlns:xlink="http://www.w3.org/1999/xlink" width="16px" height="25px" xmlns="http://www.w3.org/2000/svg">
  <g transform="matrix(1 0 0 1 -739 -468 )">
    <path d="M 16 12.5  C 16 12.7688172043011  15.9021879021879 13.0014474772539  15.7065637065637 13.1978908188586  L 4.24710424710425 24.7053349875931  C 4.05148005148005 24.9017783291977  3.81981981981982 25  3.55212355212355 25  C 3.28442728442728 25  3.05276705276705 24.9017783291977  2.85714285714286 24.7053349875931  L 0.293436293436293 22.1308933002481  C 0.097812097812098 21.9344499586435  0 21.7018196856907  0 21.4330024813896  C 0 21.1641852770885  0.097812097812098 20.9315550041357  0.293436293436293 20.735111662531  L 8.4942084942085 12.5  L 0.293436293436293 4.26488833746898  C 0.097812097812098 4.06844499586435  0 3.8358147229115  0 3.56699751861042  C 0 3.29818031430934  0.097812097812098 3.06555004135649  0.293436293436293 2.86910669975186  L 2.85714285714286 0.294665012406947  C 3.05276705276705 0.0982216708023148  3.28442728442728 0  3.55212355212355 0  C 3.81981981981982 0  4.05148005148005 0.0982216708023148  4.24710424710425 0.294665012406947  L 15.7065637065637 11.8021091811414  C 15.9021879021879 11.9985525227461  16 12.2311827956989  16 12.5  Z " fill-rule="nonzero" fill="#000000" stroke="none" transform="matrix(1 0 0 1 739 468 )" />
  </g>
</svg>