<?xml version="1.0" encoding="utf-8"?>
<svg version="1.1" xmlns:xlink="http://www.w3.org/1999/xlink" width="16px" height="25px" xmlns="http://www.w3.org/2000/svg">
  <g transform="matrix(1 0 0 1 -707 -468 )">
    <path d="M 16 3.56699751861042  C 16 3.8358147229115  15.9021879021879 4.06844499586435  15.7065637065637 4.26488833746898  L 7.50579150579151 12.5  L 15.7065637065637 20.735111662531  C 15.9021879021879 20.9315550041357  16 21.1641852770885  16 21.4330024813896  C 16 21.7018196856907  15.9021879021879 21.9344499586435  15.7065637065637 22.1308933002481  L 13.1428571428571 24.7053349875931  C 12.9472329472329 24.9017783291977  12.7155727155727 25  12.4478764478764 25  C 12.1801801801802 25  11.9485199485199 24.9017783291977  11.7528957528958 24.7053349875931  L 0.293436293436293 13.1978908188586  C 0.097812097812098 13.0014474772539  0 12.7688172043011  0 12.5  C 0 12.2311827956989  0.097812097812098 11.9985525227461  0.293436293436293 11.8021091811414  L 11.7528957528958 0.294665012406947  C 11.9485199485199 0.0982216708023148  12.1801801801802 0  12.4478764478764 0  C 12.7155727155727 0  12.9472329472329 0.0982216708023148  13.1428571428571 0.294665012406947  L 15.7065637065637 2.86910669975186  C 15.9021879021879 3.06555004135649  16 3.29818031430934  16 3.56699751861042  Z " fill-rule="nonzero" fill="#d7d7d7" stroke="none" transform="matrix(1 0 0 1 707 468 )" />
  </g>
</svg>