<?xml version="1.0" encoding="utf-8"?>
<svg version="1.1" xmlns:xlink="http://www.w3.org/1999/xlink" width="20px" height="20px" xmlns="http://www.w3.org/2000/svg">
  <g transform="matrix(1 0 0 1 -31 -103 )">
    <path d="M 16.4192708333333 11.4192708333333  C 16.5842013888889 11.2543402777778  16.6666666666667 11.0590277777778  16.6666666666667 10.8333333333333  L 16.6666666666667 9.16666666666667  C 16.6666666666667 8.94097222222222  16.5842013888889 8.74565972222222  16.4192708333333 8.58072916666667  C 16.2543402777778 8.41579861111111  16.0590277777778 8.33333333333333  15.8333333333333 8.33333333333333  L 9.296875 8.33333333333333  L 11.7578125 5.87239583333333  C 11.9227430555556 5.70746527777778  12.0052083333333 5.51215277777778  12.0052083333333 5.28645833333333  C 12.0052083333333 5.06076388888889  11.9227430555556 4.86545138888889  11.7578125 4.70052083333333  L 10.5729166666667 3.515625  C 10.4166666666667 3.359375  10.2213541666667 3.28125  9.98697916666667 3.28125  C 9.75260416666667 3.28125  9.55729166666667 3.359375  9.40104166666667 3.515625  L 4.6875 8.22916666666667  L 3.50260416666667 9.4140625  C 3.34635416666667 9.5703125  3.26822916666667 9.765625  3.26822916666667 10  C 3.26822916666667 10.234375  3.34635416666667 10.4296875  3.50260416666667 10.5859375  L 4.6875 11.7708333333333  L 9.40104166666667 16.484375  C 9.55729166666667 16.640625  9.75260416666667 16.71875  9.98697916666667 16.71875  C 10.2213541666667 16.71875  10.4166666666667 16.640625  10.5729166666667 16.484375  L 11.7578125 15.2994791666667  C 11.9140625 15.1432291666667  11.9921875 14.9479166666667  11.9921875 14.7135416666667  C 11.9921875 14.4791666666667  11.9140625 14.2838541666667  11.7578125 14.1276041666667  L 9.296875 11.6666666666667  L 15.8333333333333 11.6666666666667  C 16.0590277777778 11.6666666666667  16.2543402777778 11.5842013888889  16.4192708333333 11.4192708333333  Z M 18.6588541666667 4.98046875  C 19.5529513888889 6.51258680555555  20 8.18576388888889  20 10  C 20 11.8142361111111  19.5529513888889 13.4874131944444  18.6588541666667 15.01953125  C 17.7647569444444 16.5516493055556  16.5516493055556 17.7647569444444  15.01953125 18.6588541666667  C 13.4874131944444 19.5529513888889  11.8142361111111 20  10 20  C 8.18576388888889 20  6.51258680555556 19.5529513888889  4.98046875 18.6588541666667  C 3.44835069444444 17.7647569444444  2.23524305555556 16.5516493055556  1.34114583333333 15.01953125  C 0.447048611111111 13.4874131944444  0 11.8142361111111  0 10  C 0 8.18576388888889  0.447048611111111 6.51258680555555  1.34114583333333 4.98046875  C 2.23524305555556 3.44835069444444  3.44835069444444 2.23524305555555  4.98046875 1.34114583333333  C 6.51258680555556 0.447048611111109  8.18576388888889 0  10 0  C 11.8142361111111 0  13.4874131944444 0.447048611111109  15.01953125 1.34114583333333  C 16.5516493055556 2.23524305555555  17.7647569444444 3.44835069444444  18.6588541666667 4.98046875  Z " fill-rule="nonzero" fill="#009dd9" stroke="none" transform="matrix(1 0 0 1 31 103 )" />
  </g>
</svg>