<?xml version="1.0" encoding="utf-8"?>
<svg version="1.1" xmlns:xlink="http://www.w3.org/1999/xlink" width="88px" height="27px" xmlns="http://www.w3.org/2000/svg">
  <defs>
    <mask fill="white" id="clip17">
      <path d="M 0 22  L 0 5  C 0 2.19999999999999  2.76571428571427 0  6.28571428571429 0  L 64.3657142857152 0  L 81.7142857142857 0  C 85.2342857142857 0  88 2.19999999999999  88 5  L 88 22  C 88 24.8  85.2342857142857 27  81.7142857142857 27  L 6.28571428571429 27  C 2.76571428571427 27  0 24.8  0 22  Z " fill-rule="evenodd" />
    </mask>
  </defs>
  <g transform="matrix(1 0 0 1 -243 -440 )">
    <path d="M 0 22  L 0 5  C 0 2.19999999999999  2.76571428571427 0  6.28571428571429 0  L 64.3657142857152 0  L 81.7142857142857 0  C 85.2342857142857 0  88 2.19999999999999  88 5  L 88 22  C 88 24.8  85.2342857142857 27  81.7142857142857 27  L 6.28571428571429 27  C 2.76571428571427 27  0 24.8  0 22  Z " fill-rule="nonzero" fill="#ffffff" stroke="none" transform="matrix(1 0 0 1 243 440 )" />
    <path d="M 0 22  L 0 5  C 0 2.19999999999999  2.76571428571427 0  6.28571428571429 0  L 64.3657142857152 0  L 81.7142857142857 0  C 85.2342857142857 0  88 2.19999999999999  88 5  L 88 22  C 88 24.8  85.2342857142857 27  81.7142857142857 27  L 6.28571428571429 27  C 2.76571428571427 27  0 24.8  0 22  Z " stroke-width="2" stroke="#797979" fill="none" transform="matrix(1 0 0 1 243 440 )" mask="url(#clip17)" />
  </g>
</svg>